# Created by Kenney (www.kenney.nl)

mtllib detail_tree.mtl

g detail_tree

v 0.0224 0.532 0
v 0.01583919 0.532 0.01583919
v 0.01583919 0.532 -0.01583919
v -1.443823E-15 0.532 -0.0224
v -1.443823E-15 0.532 0.0224
v -0.01583919 0.532 -0.01583919
v -0.01583919 0.532 0.01583919
v -0.0224 0.532 0
v 0.14 0.28 0
v 0.14 0.245 0
v 0.09899495 0.28 0.09899495
v 0.09899495 0.245 0.09899495
v -0.14 0.28 0
v -0.09899495 0.28 0.09899495
v 0.1179962 0.245 -7.219114E-16
v 0.175 0.14 0
v 0.08343592 0.245 0.08343592
v 0.1237437 0.14 0.1237437
v -0.1237437 0.14 -0.1237437
v -0.08343592 0.245 -0.08343592
v -0.175 0.14 0
v -0.1179962 0.245 0
v -1.443823E-15 0.28 0.14
v 0.175 0.105 0
v 0.1237437 0.105 0.1237437
v -0.1237437 0.105 -0.1237437
v -1.443823E-15 0.105 -0.175
v -1.443823E-15 0.14 -0.175
v 0.1237437 0.14 -0.1237437
v -1.443823E-15 0.245 -0.1179962
v 0.08343592 0.245 -0.08343592
v -0.09899495 0.28 -0.09899495
v -0.1237437 0.14 0.1237437
v -0.08343592 0.245 0.08343592
v 0.1237437 0.105 -0.1237437
v -0.175 0.105 0
v -1.443823E-15 0.105 0.175
v -1.443823E-15 0.14 0.175
v -0.1237437 0.105 0.1237437
v 0.0371875 0.105 0.0371875
v 0.0371875 0.105 -0.0371875
v -0.0371875 0.105 0.0371875
v -0.0371875 0.105 -0.0371875
v -1.443823E-15 0.245 -0.14
v 0.09899495 0.245 -0.09899495
v -1.443823E-15 0.28 -0.14
v 0.09899495 0.28 -0.09899495
v -0.14 0.245 0
v -0.09899495 0.245 0.09899495
v -1.443823E-15 0.245 0.1179962
v -0.09899495 0.245 -0.09899495
v -1.443823E-15 0.245 0.14
v 0.04375 0 -0.04375
v 0.04375 0 0.04375
v -0.04375 0 -0.04375
v -0.04375 0 0.04375

vn 0 1 0
vn 0.9238795 0 0.3826834
vn -0.8483871 0.3959139 0.3514134
vn 0.8258243 0.4483344 0.3420676
vn -0.8258243 0.4483344 -0.3420676
vn -0.3514134 0.3959139 0.8483871
vn 0.8483871 0.3959139 0.3514134
vn -0.3826834 0 -0.9238795
vn 0.3420676 0.4483344 -0.8258243
vn -0.8483871 0.3959139 -0.3514134
vn -0.8258243 0.4483344 0.3420676
vn 0.3826834 0 -0.9238795
vn 0.8258243 0.4483344 -0.3420676
vn -0.9238795 0 -0.3826834
vn 0.3826834 0 0.9238795
vn -0.3826834 0 0.9238795
vn 0 -1 0
vn 0.8483871 0.3959139 -0.3514134
vn -0.9238795 0 0.3826834
vn -0.3420676 0.4483344 -0.8258243
vn -0.3420676 0.4483344 0.8258243
vn 0.9238795 0 -0.3826834
vn -0.3514134 0.3959139 -0.8483871
vn 0.3514134 0.3959139 0.8483871
vn 0.3514134 0.3959139 -0.8483871
vn 0.3420676 0.4483344 0.8258243
vn 0.9980526 0.06237829 0
vn 0 0.06237829 -0.9980526
vn -0.9980526 0.06237829 0
vn 0 0.06237829 0.9980526

vt -0.8818898 0
vt -0.6235902 0.6235902
vt -0.6235902 -0.6235902
vt 5.684342E-14 -0.8818898
vt 5.684342E-14 0.8818898
vt 0.6235902 -0.6235902
vt 0.6235902 0.6235902
vt 0.8818898 0
vt 2.109279 11.02362
vt 2.109279 9.645669
vt -2.109279 11.02362
vt -2.109279 9.645669
vt -2.109279 8.106763
vt -0.3374846 18.91085
vt 2.109279 8.106763
vt 0.3374846 18.91085
vt 1.777764 6.697728
vt 2.636598 2.073031
vt -1.777764 6.697728
vt -2.636598 2.073031
vt 2.636598 5.511811
vt 2.636598 4.133858
vt -2.636598 5.511811
vt -2.636598 4.133858
vt 6.889764 0
vt 4.871799 -4.871799
vt 4.871799 4.871799
vt -5.684342E-14 6.889764
vt 1.464075 1.464075
vt 1.464075 -1.464075
vt -1.464075 1.464075
vt -4.871799 4.871799
vt -5.684342E-14 -6.889764
vt -1.464075 -1.464075
vt -4.871799 -4.871799
vt -6.889764 0
vt 5.511811 0
vt 4.64552 -2.842171E-14
vt 3.897439 3.897439
vt 3.284879 3.284879
vt -5.684342E-14 5.511811
vt -5.684342E-14 4.64552
vt -3.897439 3.897439
vt -3.284879 3.284879
vt -4.64552 0
vt -5.511811 0
vt 3.897439 -3.897439
vt 3.284879 -3.284879
vt -5.684342E-14 -5.511811
vt -5.684342E-14 -4.64552
vt -3.284879 -3.284879
vt -3.897439 -3.897439
vt 1.722441 -0.1074429
vt -1.722441 -0.1074429
vt 1.464075 4.034482
vt -1.464075 4.034482

usemtl foliage

f 3/3/1 2/2/1 1/1/1
f 2/2/1 3/3/1 4/4/1
f 2/2/1 4/4/1 5/5/1
f 5/5/1 4/4/1 6/6/1
f 5/5/1 6/6/1 7/7/1
f 7/7/1 6/6/1 8/8/1
f 11/11/2 10/10/2 9/9/2
f 10/10/2 11/11/2 12/12/2
f 14/15/3 8/14/3 13/13/3
f 8/14/3 14/15/3 7/16/3
f 17/19/4 16/18/4 15/17/4
f 16/18/4 17/19/4 18/20/4
f 21/18/5 20/19/5 19/20/5
f 20/19/5 21/18/5 22/17/5
f 5/16/6 14/13/6 23/15/6
f 14/13/6 5/16/6 7/14/6
f 2/14/7 9/15/7 1/16/7
f 9/15/7 2/14/7 11/13/7
f 18/23/2 24/22/2 16/21/2
f 24/22/2 18/23/2 25/24/2
f 19/21/8 27/24/8 26/22/8
f 27/24/8 19/21/8 28/23/8
f 30/17/9 29/20/9 28/18/9
f 29/20/9 30/17/9 31/19/9
f 13/15/10 6/14/10 32/13/10
f 6/14/10 13/15/10 8/16/10
f 33/18/11 22/19/11 21/20/11
f 22/19/11 33/18/11 34/17/11
f 28/21/12 35/24/12 27/22/12
f 35/24/12 28/21/12 29/23/12
f 31/17/13 16/20/13 29/18/13
f 16/20/13 31/17/13 15/19/13
f 36/22/14 19/23/14 26/24/14
f 19/23/14 36/22/14 21/21/14
f 18/21/15 37/24/15 25/22/15
f 37/24/15 18/21/15 38/23/15
f 38/21/16 39/24/16 37/22/16
f 39/24/16 38/21/16 33/23/16
f 25/27/17 35/26/17 24/25/17
f 35/26/17 25/27/17 37/28/17
f 35/26/17 37/28/17 40/29/17
f 35/26/17 40/29/17 41/30/17
f 40/29/17 37/28/17 42/31/17
f 42/31/17 37/28/17 39/32/17
f 41/30/17 27/33/17 35/26/17
f 27/33/17 41/30/17 43/34/17
f 27/33/17 43/34/17 26/35/17
f 26/35/17 43/34/17 42/31/17
f 26/35/17 42/31/17 39/32/17
f 26/35/17 39/32/17 36/36/17
f 46/9/12 45/12/12 44/10/12
f 45/12/12 46/9/12 47/11/12
f 3/16/18 9/13/18 47/15/18
f 9/13/18 3/16/18 1/14/18
f 49/10/19 13/11/19 48/12/19
f 13/11/19 49/10/19 14/9/19
f 20/17/20 28/20/20 19/18/20
f 28/20/20 20/17/20 30/19/20
f 50/17/21 33/20/21 38/18/21
f 33/20/21 50/17/21 34/19/21
f 16/23/22 35/22/22 29/21/22
f 35/22/22 16/23/22 24/24/22
f 6/16/23 46/13/23 32/15/23
f 46/13/23 6/16/23 4/14/23
f 48/10/14 32/11/14 51/12/14
f 32/11/14 48/10/14 13/9/14
f 11/9/15 52/12/15 12/10/15
f 52/12/15 11/9/15 23/11/15
f 23/9/16 49/12/16 52/10/16
f 49/12/16 23/9/16 14/11/16
f 12/39/17 15/38/17 10/37/17
f 15/38/17 12/39/17 17/40/17
f 17/40/17 12/39/17 52/41/17
f 17/40/17 52/41/17 50/42/17
f 50/42/17 52/41/17 49/43/17
f 50/42/17 49/43/17 34/44/17
f 34/44/17 49/43/17 22/45/17
f 22/45/17 49/43/17 48/46/17
f 15/38/17 45/47/17 10/37/17
f 45/47/17 15/38/17 31/48/17
f 45/47/17 31/48/17 44/49/17
f 44/49/17 31/48/17 30/50/17
f 44/49/17 30/50/17 20/51/17
f 44/49/17 20/51/17 51/52/17
f 51/52/17 20/51/17 22/45/17
f 51/52/17 22/45/17 48/46/17
f 2/16/24 23/13/24 11/15/24
f 23/13/24 2/16/24 5/14/24
f 9/11/22 45/10/22 47/9/22
f 45/10/22 9/11/22 10/12/22
f 39/22/19 21/23/19 36/24/19
f 21/23/19 39/22/19 33/21/19
f 4/16/25 47/13/25 46/15/25
f 47/13/25 4/16/25 3/14/25
f 17/17/26 38/20/26 18/18/26
f 38/20/26 17/17/26 50/19/26
f 32/9/8 44/12/8 51/10/8
f 44/12/8 32/9/8 46/11/8

usemtl wood

f 41/55/27 54/54/27 53/53/27
f 54/54/27 41/55/27 40/56/27
f 43/55/28 53/54/28 55/53/28
f 53/54/28 43/55/28 41/56/28
f 56/53/29 43/56/29 55/54/29
f 43/56/29 56/53/29 42/55/29
f 40/55/30 56/54/30 54/53/30
f 56/54/30 40/55/30 42/56/30

usemtl _defaultMat

f 54/20/17 55/17/17 53/19/17
f 55/20/17 54/17/17 56/19/17

